# xmcd
#
# Track frame offsets:
#	180
#	13026
#	23482
#	48684
#	59868
#	74328
#	87015
#	99916
#	114735
#	129068
#	143471
#	155806
#	165347
#	179490
#	193788
#	205486
#	217715
#	226784
#
# Disc length: 3130 seconds
#
# Revision: 1
# Processed by: cddbd v1.5.2PL0 Copyright (c) Steve Scherf et al.
# Submitted via: audiograbber 1.83.01
#
DISCID=f00c3812
DTITLE=Various Artist - Great Voices Of Entertainment -CD 08
DYEAR=1900
DGENRE=Swing
TTITLE0=Mel Tormé - Mackin' Whoopee
TTITLE1=Mel Tormé - Lullaby Of Leaves
TTITLE2=Fred Astaire - Cheek To Cheek
TTITLE3=Fred Astaire - High Hat
TTITLE4=Bing Crosby - Sweet Leilani
TTITLE5=Bing Crosby - Ain't Got A Dime To My Name
TTITLE6=Frank Sinatra - When Your Lover Has Gone
TTITLE7=Judy Garland - You'll Never Walk Alone
TTITLE8=Frank Sinatra - Nancy
TTITLE9=Judy Garland - On The Atchison, Topeka And The Santa Fe
TTITLE10=Perry Como - Temptation
TTITLE11=Four Knights - Latch!
TTITLE12=Four Knights - I'm Falling For You
TTITLE13=Doris Day - Sooner Or Later
TTITLE14=Dean Martin - Vieni Su (Say You Love Me Too)
TTITLE15=Perry Como - A Bushel And A Peck
TTITLE16=Doris Day and Frankie Laine - Sugarbush
TTITLE17=Dean Martin - I Feel A Song Coming On
EXTD=CD 8 von 10
EXTT0=
EXTT1=
EXTT2=
EXTT3=
EXTT4=
EXTT5=
EXTT6=
EXTT7=
EXTT8=
EXTT9=
EXTT10=
EXTT11=
EXTT12=
EXTT13=
EXTT14=
EXTT15=
EXTT16=
EXTT17=
PLAYORDER=
